<mxfile host="app.diagrams.net" modified="2024-04-26T07:36:03.116Z" agent="Mozilla/5.0 (Windows NT 10.0; Win64; x64) AppleWebKit/537.36 (KHTML, like Gecko) Chrome/122.0.0.0 Safari/537.36 Edg/122.0.0.0" etag="O7vYhuJU9WGIG5QxL2GT" version="24.2.8" type="github">
  <diagram name="第 1 页" id="vfNwCYuGRLdU5hUFA7Me">
    <mxGraphModel dx="614" dy="2197" grid="1" gridSize="10" guides="1" tooltips="1" connect="1" arrows="1" fold="1" page="1" pageScale="1" pageWidth="1200" pageHeight="1920" math="0" shadow="0">
      <root>
        <mxCell id="0" />
        <mxCell id="1" parent="0" />
        <mxCell id="oiqnkyGdKJSnwHeWL_rj-48" value="" style="rounded=1;whiteSpace=wrap;html=1;" vertex="1" parent="1">
          <mxGeometry x="331.25" y="180" width="118.75" height="10" as="geometry" />
        </mxCell>
        <mxCell id="oiqnkyGdKJSnwHeWL_rj-46" value="" style="rounded=1;whiteSpace=wrap;html=1;" vertex="1" parent="1">
          <mxGeometry x="385" y="217.5" width="80" height="5" as="geometry" />
        </mxCell>
        <mxCell id="oiqnkyGdKJSnwHeWL_rj-1" value="" style="shape=cube;whiteSpace=wrap;html=1;boundedLbl=1;backgroundOutline=1;darkOpacity=0.05;darkOpacity2=0.1;" vertex="1" parent="1">
          <mxGeometry x="90" y="168" width="120" height="80" as="geometry" />
        </mxCell>
        <mxCell id="oiqnkyGdKJSnwHeWL_rj-8" value="" style="group" vertex="1" connectable="0" parent="1">
          <mxGeometry x="240" y="218" width="15" height="20" as="geometry" />
        </mxCell>
        <mxCell id="oiqnkyGdKJSnwHeWL_rj-4" value="" style="triangle;whiteSpace=wrap;html=1;rotation=-90;" vertex="1" parent="oiqnkyGdKJSnwHeWL_rj-8">
          <mxGeometry x="2.5" y="5.7142857142857135" width="10" height="17.14285714285714" as="geometry" />
        </mxCell>
        <mxCell id="oiqnkyGdKJSnwHeWL_rj-3" value="" style="ellipse;whiteSpace=wrap;html=1;aspect=fixed;" vertex="1" parent="oiqnkyGdKJSnwHeWL_rj-8">
          <mxGeometry x="2.5" width="10" height="10" as="geometry" />
        </mxCell>
        <mxCell id="oiqnkyGdKJSnwHeWL_rj-14" value="流量计" style="rounded=0;whiteSpace=wrap;html=1;" vertex="1" parent="1">
          <mxGeometry x="270" y="195" width="20" height="70" as="geometry" />
        </mxCell>
        <mxCell id="oiqnkyGdKJSnwHeWL_rj-15" value="" style="rounded=1;whiteSpace=wrap;html=1;strokeWidth=2;fillWeight=4;hachureGap=8;hachureAngle=45;fillColor=#1ba1e2;sketch=1;" vertex="1" parent="1">
          <mxGeometry x="330" y="40" width="10" height="210" as="geometry" />
        </mxCell>
        <mxCell id="oiqnkyGdKJSnwHeWL_rj-16" value="" style="rounded=1;whiteSpace=wrap;html=1;strokeWidth=2;fillWeight=4;hachureGap=8;hachureAngle=45;fillColor=#1ba1e2;sketch=1;" vertex="1" parent="1">
          <mxGeometry x="310" y="70" width="30" height="10" as="geometry" />
        </mxCell>
        <mxCell id="oiqnkyGdKJSnwHeWL_rj-21" value="" style="rounded=1;whiteSpace=wrap;html=1;strokeWidth=2;fillWeight=4;hachureGap=8;hachureAngle=45;fillColor=#1ba1e2;sketch=1;" vertex="1" parent="1">
          <mxGeometry x="340" y="240" width="100" height="10" as="geometry" />
        </mxCell>
        <mxCell id="oiqnkyGdKJSnwHeWL_rj-22" value="" style="rounded=1;whiteSpace=wrap;html=1;strokeWidth=2;fillWeight=4;hachureGap=8;hachureAngle=45;fillColor=#1ba1e2;sketch=1;" vertex="1" parent="1">
          <mxGeometry x="440" y="40" width="10" height="210" as="geometry" />
        </mxCell>
        <mxCell id="oiqnkyGdKJSnwHeWL_rj-24" value="" style="rounded=1;whiteSpace=wrap;html=1;strokeWidth=2;fillWeight=4;hachureGap=8;hachureAngle=45;fillColor=#1ba1e2;sketch=1;" vertex="1" parent="1">
          <mxGeometry x="300" y="10" width="10" height="70" as="geometry" />
        </mxCell>
        <mxCell id="oiqnkyGdKJSnwHeWL_rj-25" value="" style="rounded=1;whiteSpace=wrap;html=1;strokeWidth=2;fillWeight=4;hachureGap=8;hachureAngle=45;fillColor=#1ba1e2;sketch=1;" vertex="1" parent="1">
          <mxGeometry x="470" y="10" width="10" height="70" as="geometry" />
        </mxCell>
        <mxCell id="oiqnkyGdKJSnwHeWL_rj-26" value="" style="rounded=1;whiteSpace=wrap;html=1;strokeWidth=2;fillWeight=4;hachureGap=8;hachureAngle=45;fillColor=#1ba1e2;sketch=1;" vertex="1" parent="1">
          <mxGeometry x="440" y="70" width="30" height="10" as="geometry" />
        </mxCell>
        <mxCell id="oiqnkyGdKJSnwHeWL_rj-29" value="" style="pointerEvents=1;verticalLabelPosition=bottom;shadow=0;dashed=0;align=center;html=1;verticalAlign=top;shape=mxgraph.electrical.resistors.resistor_2;" vertex="1" parent="1">
          <mxGeometry x="340" y="35" width="100" height="15" as="geometry" />
        </mxCell>
        <mxCell id="oiqnkyGdKJSnwHeWL_rj-31" value="" style="shape=mxgraph.pid.pumps.vertical_pump;html=1;pointerEvents=1;align=center;verticalLabelPosition=bottom;verticalAlign=top;dashed=0;" vertex="1" parent="1">
          <mxGeometry x="210" y="202" width="20" height="26" as="geometry" />
        </mxCell>
        <mxCell id="oiqnkyGdKJSnwHeWL_rj-32" value="" style="endArrow=none;html=1;rounded=0;entryX=0.923;entryY=0.342;entryDx=0;entryDy=0;entryPerimeter=0;exitX=0.965;exitY=0.911;exitDx=0;exitDy=0;exitPerimeter=0;" edge="1" parent="1" source="oiqnkyGdKJSnwHeWL_rj-31" target="oiqnkyGdKJSnwHeWL_rj-4">
          <mxGeometry width="50" height="50" relative="1" as="geometry">
            <mxPoint x="230" y="227.44" as="sourcePoint" />
            <mxPoint x="240" y="227.86" as="targetPoint" />
          </mxGeometry>
        </mxCell>
        <mxCell id="oiqnkyGdKJSnwHeWL_rj-34" value="" style="shape=mxgraph.pid.pumps.vertical_pump;html=1;pointerEvents=1;align=center;verticalLabelPosition=bottom;verticalAlign=top;dashed=0;" vertex="1" parent="1">
          <mxGeometry x="310" y="207" width="20" height="26" as="geometry" />
        </mxCell>
        <mxCell id="oiqnkyGdKJSnwHeWL_rj-35" value="" style="endArrow=none;html=1;rounded=0;exitX=1;exitY=0.5;exitDx=0;exitDy=0;" edge="1" parent="1" source="oiqnkyGdKJSnwHeWL_rj-14">
          <mxGeometry width="50" height="50" relative="1" as="geometry">
            <mxPoint x="300" y="230" as="sourcePoint" />
            <mxPoint x="310" y="230.00000000000003" as="targetPoint" />
          </mxGeometry>
        </mxCell>
        <mxCell id="oiqnkyGdKJSnwHeWL_rj-37" value="" style="group" vertex="1" connectable="0" parent="1">
          <mxGeometry x="500" y="210" width="15" height="20" as="geometry" />
        </mxCell>
        <mxCell id="oiqnkyGdKJSnwHeWL_rj-38" value="" style="triangle;whiteSpace=wrap;html=1;rotation=-90;" vertex="1" parent="oiqnkyGdKJSnwHeWL_rj-37">
          <mxGeometry x="2.5" y="5.7142857142857135" width="10" height="17.14285714285714" as="geometry" />
        </mxCell>
        <mxCell id="oiqnkyGdKJSnwHeWL_rj-39" value="" style="ellipse;whiteSpace=wrap;html=1;aspect=fixed;" vertex="1" parent="oiqnkyGdKJSnwHeWL_rj-37">
          <mxGeometry x="2.5" width="10" height="10" as="geometry" />
        </mxCell>
        <mxCell id="oiqnkyGdKJSnwHeWL_rj-40" value="" style="shape=mxgraph.pid.pumps.vertical_pump;html=1;pointerEvents=1;align=center;verticalLabelPosition=bottom;verticalAlign=top;dashed=0;" vertex="1" parent="1">
          <mxGeometry x="465" y="197" width="20" height="26" as="geometry" />
        </mxCell>
        <mxCell id="oiqnkyGdKJSnwHeWL_rj-43" value="" style="endArrow=none;html=1;rounded=0;exitX=1.028;exitY=0.856;exitDx=0;exitDy=0;exitPerimeter=0;" edge="1" parent="1" source="oiqnkyGdKJSnwHeWL_rj-40">
          <mxGeometry width="50" height="50" relative="1" as="geometry">
            <mxPoint x="490" y="220" as="sourcePoint" />
            <mxPoint x="505" y="219.72" as="targetPoint" />
          </mxGeometry>
        </mxCell>
        <mxCell id="oiqnkyGdKJSnwHeWL_rj-47" value="" style="rounded=1;whiteSpace=wrap;html=1;rotation=-90;" vertex="1" parent="1">
          <mxGeometry x="377.5" y="212.5" width="17.5" height="5" as="geometry" />
        </mxCell>
        <mxCell id="oiqnkyGdKJSnwHeWL_rj-49" value="" style="ellipse;whiteSpace=wrap;html=1;aspect=fixed;" vertex="1" parent="1">
          <mxGeometry x="350" y="180" width="10" height="10" as="geometry" />
        </mxCell>
        <mxCell id="oiqnkyGdKJSnwHeWL_rj-50" value="" style="ellipse;whiteSpace=wrap;html=1;aspect=fixed;" vertex="1" parent="1">
          <mxGeometry x="367.5" y="180" width="10" height="10" as="geometry" />
        </mxCell>
        <mxCell id="oiqnkyGdKJSnwHeWL_rj-51" value="" style="ellipse;whiteSpace=wrap;html=1;aspect=fixed;" vertex="1" parent="1">
          <mxGeometry x="385" y="180" width="10" height="10" as="geometry" />
        </mxCell>
        <mxCell id="oiqnkyGdKJSnwHeWL_rj-52" value="" style="ellipse;whiteSpace=wrap;html=1;aspect=fixed;" vertex="1" parent="1">
          <mxGeometry x="400" y="180" width="10" height="10" as="geometry" />
        </mxCell>
        <mxCell id="oiqnkyGdKJSnwHeWL_rj-53" value="" style="ellipse;whiteSpace=wrap;html=1;aspect=fixed;" vertex="1" parent="1">
          <mxGeometry x="420" y="180" width="10" height="10" as="geometry" />
        </mxCell>
        <mxCell id="oiqnkyGdKJSnwHeWL_rj-54" value="" style="shape=or;whiteSpace=wrap;html=1;rotation=-90;" vertex="1" parent="1">
          <mxGeometry x="379.86" y="186.11" width="12.8" height="30" as="geometry" />
        </mxCell>
        <mxCell id="oiqnkyGdKJSnwHeWL_rj-55" value="" style="ellipse;whiteSpace=wrap;html=1;aspect=fixed;" vertex="1" parent="1">
          <mxGeometry x="374.5" y="204" width="3" height="3" as="geometry" />
        </mxCell>
        <mxCell id="oiqnkyGdKJSnwHeWL_rj-56" value="" style="ellipse;whiteSpace=wrap;html=1;aspect=fixed;" vertex="1" parent="1">
          <mxGeometry x="379.86" y="199.61" width="3" height="3" as="geometry" />
        </mxCell>
        <mxCell id="oiqnkyGdKJSnwHeWL_rj-57" value="" style="ellipse;whiteSpace=wrap;html=1;aspect=fixed;" vertex="1" parent="1">
          <mxGeometry x="388.5" y="199.61" width="3" height="3" as="geometry" />
        </mxCell>
        <mxCell id="oiqnkyGdKJSnwHeWL_rj-58" value="" style="ellipse;whiteSpace=wrap;html=1;aspect=fixed;" vertex="1" parent="1">
          <mxGeometry x="395" y="204" width="3" height="3" as="geometry" />
        </mxCell>
        <mxCell id="oiqnkyGdKJSnwHeWL_rj-59" value="" style="shape=mxgraph.pid.pumps.vertical_pump;html=1;pointerEvents=1;align=center;verticalLabelPosition=bottom;verticalAlign=top;dashed=0;" vertex="1" parent="1">
          <mxGeometry x="480" y="14" width="20" height="26" as="geometry" />
        </mxCell>
        <mxCell id="oiqnkyGdKJSnwHeWL_rj-60" value="" style="shape=process;whiteSpace=wrap;html=1;backgroundOutline=1;" vertex="1" parent="1">
          <mxGeometry x="530" y="35" width="10" height="185" as="geometry" />
        </mxCell>
        <mxCell id="oiqnkyGdKJSnwHeWL_rj-62" value="" style="rounded=1;whiteSpace=wrap;html=1;" vertex="1" parent="1">
          <mxGeometry x="500" y="35" width="40" height="10" as="geometry" />
        </mxCell>
        <mxCell id="oiqnkyGdKJSnwHeWL_rj-63" value="" style="rounded=1;whiteSpace=wrap;html=1;" vertex="1" parent="1">
          <mxGeometry x="530" y="217.5" width="55" height="10" as="geometry" />
        </mxCell>
        <mxCell id="oiqnkyGdKJSnwHeWL_rj-66" value="" style="rounded=1;whiteSpace=wrap;html=1;" vertex="1" parent="1">
          <mxGeometry x="601.25" y="172" width="118.75" height="10" as="geometry" />
        </mxCell>
        <mxCell id="oiqnkyGdKJSnwHeWL_rj-67" value="" style="rounded=1;whiteSpace=wrap;html=1;" vertex="1" parent="1">
          <mxGeometry x="655" y="209.5" width="80" height="5" as="geometry" />
        </mxCell>
        <mxCell id="oiqnkyGdKJSnwHeWL_rj-68" value="" style="rounded=1;whiteSpace=wrap;html=1;strokeWidth=2;fillWeight=4;hachureGap=8;hachureAngle=45;fillColor=#1ba1e2;sketch=1;" vertex="1" parent="1">
          <mxGeometry x="600" y="84.5" width="10" height="157.5" as="geometry" />
        </mxCell>
        <mxCell id="oiqnkyGdKJSnwHeWL_rj-69" value="" style="rounded=1;whiteSpace=wrap;html=1;strokeWidth=2;fillWeight=4;hachureGap=8;hachureAngle=45;fillColor=#1ba1e2;sketch=1;" vertex="1" parent="1">
          <mxGeometry x="580" y="114.5" width="30" height="10" as="geometry" />
        </mxCell>
        <mxCell id="oiqnkyGdKJSnwHeWL_rj-70" value="" style="rounded=1;whiteSpace=wrap;html=1;strokeWidth=2;fillWeight=4;hachureGap=8;hachureAngle=45;fillColor=#1ba1e2;sketch=1;" vertex="1" parent="1">
          <mxGeometry x="610" y="232" width="100" height="10" as="geometry" />
        </mxCell>
        <mxCell id="oiqnkyGdKJSnwHeWL_rj-71" value="" style="rounded=1;whiteSpace=wrap;html=1;strokeWidth=2;fillWeight=4;hachureGap=8;hachureAngle=45;fillColor=#1ba1e2;sketch=1;" vertex="1" parent="1">
          <mxGeometry x="710" y="84.5" width="10" height="157.5" as="geometry" />
        </mxCell>
        <mxCell id="oiqnkyGdKJSnwHeWL_rj-72" value="" style="rounded=1;whiteSpace=wrap;html=1;strokeWidth=2;fillWeight=4;hachureGap=8;hachureAngle=45;fillColor=#1ba1e2;sketch=1;" vertex="1" parent="1">
          <mxGeometry x="570" y="54.5" width="10" height="70" as="geometry" />
        </mxCell>
        <mxCell id="oiqnkyGdKJSnwHeWL_rj-73" value="" style="rounded=1;whiteSpace=wrap;html=1;strokeWidth=2;fillWeight=4;hachureGap=8;hachureAngle=45;fillColor=#1ba1e2;sketch=1;" vertex="1" parent="1">
          <mxGeometry x="740" y="54.5" width="10" height="70" as="geometry" />
        </mxCell>
        <mxCell id="oiqnkyGdKJSnwHeWL_rj-74" value="" style="rounded=1;whiteSpace=wrap;html=1;strokeWidth=2;fillWeight=4;hachureGap=8;hachureAngle=45;fillColor=#1ba1e2;sketch=1;" vertex="1" parent="1">
          <mxGeometry x="710" y="114.5" width="30" height="10" as="geometry" />
        </mxCell>
        <mxCell id="oiqnkyGdKJSnwHeWL_rj-75" value="" style="pointerEvents=1;verticalLabelPosition=bottom;shadow=0;dashed=0;align=center;html=1;verticalAlign=top;shape=mxgraph.electrical.resistors.resistor_2;" vertex="1" parent="1">
          <mxGeometry x="610" y="74.5" width="100" height="17.5" as="geometry" />
        </mxCell>
        <mxCell id="oiqnkyGdKJSnwHeWL_rj-76" value="" style="shape=mxgraph.pid.pumps.vertical_pump;html=1;pointerEvents=1;align=center;verticalLabelPosition=bottom;verticalAlign=top;dashed=0;" vertex="1" parent="1">
          <mxGeometry x="580" y="199" width="20" height="26" as="geometry" />
        </mxCell>
        <mxCell id="oiqnkyGdKJSnwHeWL_rj-77" value="" style="shape=mxgraph.pid.pumps.vertical_pump;html=1;pointerEvents=1;align=center;verticalLabelPosition=bottom;verticalAlign=top;dashed=0;" vertex="1" parent="1">
          <mxGeometry x="735" y="186.5" width="20" height="26" as="geometry" />
        </mxCell>
        <mxCell id="oiqnkyGdKJSnwHeWL_rj-78" value="" style="rounded=1;whiteSpace=wrap;html=1;rotation=-90;" vertex="1" parent="1">
          <mxGeometry x="647.5" y="204.5" width="17.5" height="5" as="geometry" />
        </mxCell>
        <mxCell id="oiqnkyGdKJSnwHeWL_rj-79" value="" style="ellipse;whiteSpace=wrap;html=1;aspect=fixed;" vertex="1" parent="1">
          <mxGeometry x="620" y="172" width="10" height="10" as="geometry" />
        </mxCell>
        <mxCell id="oiqnkyGdKJSnwHeWL_rj-80" value="" style="ellipse;whiteSpace=wrap;html=1;aspect=fixed;" vertex="1" parent="1">
          <mxGeometry x="637.5" y="172" width="10" height="10" as="geometry" />
        </mxCell>
        <mxCell id="oiqnkyGdKJSnwHeWL_rj-81" value="" style="ellipse;whiteSpace=wrap;html=1;aspect=fixed;" vertex="1" parent="1">
          <mxGeometry x="655" y="172" width="10" height="10" as="geometry" />
        </mxCell>
        <mxCell id="oiqnkyGdKJSnwHeWL_rj-82" value="" style="ellipse;whiteSpace=wrap;html=1;aspect=fixed;" vertex="1" parent="1">
          <mxGeometry x="670" y="172" width="10" height="10" as="geometry" />
        </mxCell>
        <mxCell id="oiqnkyGdKJSnwHeWL_rj-83" value="" style="ellipse;whiteSpace=wrap;html=1;aspect=fixed;" vertex="1" parent="1">
          <mxGeometry x="690" y="172" width="10" height="10" as="geometry" />
        </mxCell>
        <mxCell id="oiqnkyGdKJSnwHeWL_rj-84" value="" style="shape=or;whiteSpace=wrap;html=1;rotation=-90;" vertex="1" parent="1">
          <mxGeometry x="649.86" y="178.11" width="12.8" height="30" as="geometry" />
        </mxCell>
        <mxCell id="oiqnkyGdKJSnwHeWL_rj-85" value="" style="ellipse;whiteSpace=wrap;html=1;aspect=fixed;" vertex="1" parent="1">
          <mxGeometry x="644.5" y="196" width="3" height="3" as="geometry" />
        </mxCell>
        <mxCell id="oiqnkyGdKJSnwHeWL_rj-86" value="" style="ellipse;whiteSpace=wrap;html=1;aspect=fixed;" vertex="1" parent="1">
          <mxGeometry x="649.86" y="191.61" width="3" height="3" as="geometry" />
        </mxCell>
        <mxCell id="oiqnkyGdKJSnwHeWL_rj-87" value="" style="ellipse;whiteSpace=wrap;html=1;aspect=fixed;" vertex="1" parent="1">
          <mxGeometry x="658.5" y="191.61" width="3" height="3" as="geometry" />
        </mxCell>
        <mxCell id="oiqnkyGdKJSnwHeWL_rj-88" value="" style="ellipse;whiteSpace=wrap;html=1;aspect=fixed;" vertex="1" parent="1">
          <mxGeometry x="665" y="196" width="3" height="3" as="geometry" />
        </mxCell>
        <mxCell id="oiqnkyGdKJSnwHeWL_rj-89" value="" style="shape=crossbar;whiteSpace=wrap;html=1;rounded=1;direction=south;" vertex="1" parent="1">
          <mxGeometry x="255" y="40" width="20" height="200" as="geometry" />
        </mxCell>
        <mxCell id="oiqnkyGdKJSnwHeWL_rj-93" value="700mm" style="text;html=1;align=center;verticalAlign=middle;resizable=0;points=[];autosize=1;strokeColor=none;fillColor=none;" vertex="1" parent="1">
          <mxGeometry x="235" y="112" width="60" height="30" as="geometry" />
        </mxCell>
        <mxCell id="oiqnkyGdKJSnwHeWL_rj-94" value="" style="endArrow=classic;html=1;rounded=0;entryX=0.027;entryY=0.486;entryDx=0;entryDy=0;entryPerimeter=0;exitX=0.307;exitY=0.511;exitDx=0;exitDy=0;exitPerimeter=0;" edge="1" parent="1" source="oiqnkyGdKJSnwHeWL_rj-89" target="oiqnkyGdKJSnwHeWL_rj-89">
          <mxGeometry width="50" height="50" relative="1" as="geometry">
            <mxPoint x="430" y="100" as="sourcePoint" />
            <mxPoint x="370" y="70" as="targetPoint" />
          </mxGeometry>
        </mxCell>
        <mxCell id="oiqnkyGdKJSnwHeWL_rj-95" value="" style="endArrow=classic;html=1;rounded=0;exitX=0.653;exitY=0.513;exitDx=0;exitDy=0;exitPerimeter=0;entryX=1.01;entryY=0.496;entryDx=0;entryDy=0;entryPerimeter=0;" edge="1" parent="1" source="oiqnkyGdKJSnwHeWL_rj-89" target="oiqnkyGdKJSnwHeWL_rj-89">
          <mxGeometry width="50" height="50" relative="1" as="geometry">
            <mxPoint x="310" y="216.11" as="sourcePoint" />
            <mxPoint x="300" y="250" as="targetPoint" />
          </mxGeometry>
        </mxCell>
        <mxCell id="oiqnkyGdKJSnwHeWL_rj-96" value="" style="shape=crossbar;whiteSpace=wrap;html=1;rounded=1;direction=south;" vertex="1" parent="1">
          <mxGeometry x="550" y="83.25" width="20" height="148.75" as="geometry" />
        </mxCell>
        <mxCell id="oiqnkyGdKJSnwHeWL_rj-98" value="" style="endArrow=classic;startArrow=classic;html=1;rounded=0;" edge="1" parent="1">
          <mxGeometry width="50" height="50" relative="1" as="geometry">
            <mxPoint x="330" y="268" as="sourcePoint" />
            <mxPoint x="450" y="268" as="targetPoint" />
          </mxGeometry>
        </mxCell>
        <mxCell id="oiqnkyGdKJSnwHeWL_rj-101" value="Φ150mm" style="edgeLabel;html=1;align=center;verticalAlign=middle;resizable=0;points=[];" vertex="1" connectable="0" parent="oiqnkyGdKJSnwHeWL_rj-98">
          <mxGeometry x="0.2044" y="-3" relative="1" as="geometry">
            <mxPoint x="-16" y="-13" as="offset" />
          </mxGeometry>
        </mxCell>
        <mxCell id="oiqnkyGdKJSnwHeWL_rj-99" value="" style="endArrow=none;dashed=1;html=1;dashPattern=1 3;strokeWidth=2;rounded=0;entryX=1.153;entryY=0.954;entryDx=0;entryDy=0;entryPerimeter=0;" edge="1" parent="1" target="oiqnkyGdKJSnwHeWL_rj-22">
          <mxGeometry width="50" height="50" relative="1" as="geometry">
            <mxPoint x="452" y="300" as="sourcePoint" />
            <mxPoint x="490" y="240" as="targetPoint" />
          </mxGeometry>
        </mxCell>
        <mxCell id="oiqnkyGdKJSnwHeWL_rj-100" value="" style="endArrow=none;dashed=1;html=1;dashPattern=1 3;strokeWidth=2;rounded=0;entryX=1.153;entryY=0.954;entryDx=0;entryDy=0;entryPerimeter=0;" edge="1" parent="1">
          <mxGeometry width="50" height="50" relative="1" as="geometry">
            <mxPoint x="329.47" y="300" as="sourcePoint" />
            <mxPoint x="329.47" y="240" as="targetPoint" />
          </mxGeometry>
        </mxCell>
        <mxCell id="oiqnkyGdKJSnwHeWL_rj-103" value="" style="endArrow=classic;startArrow=classic;html=1;rounded=0;" edge="1" parent="1">
          <mxGeometry width="50" height="50" relative="1" as="geometry">
            <mxPoint x="600.62" y="272" as="sourcePoint" />
            <mxPoint x="720.62" y="272" as="targetPoint" />
          </mxGeometry>
        </mxCell>
        <mxCell id="oiqnkyGdKJSnwHeWL_rj-104" value="Φ180mm" style="edgeLabel;html=1;align=center;verticalAlign=middle;resizable=0;points=[];" vertex="1" connectable="0" parent="oiqnkyGdKJSnwHeWL_rj-103">
          <mxGeometry x="0.2044" y="-3" relative="1" as="geometry">
            <mxPoint x="-16" y="-13" as="offset" />
          </mxGeometry>
        </mxCell>
        <mxCell id="oiqnkyGdKJSnwHeWL_rj-105" value="" style="endArrow=none;dashed=1;html=1;dashPattern=1 3;strokeWidth=2;rounded=0;entryX=1.153;entryY=0.954;entryDx=0;entryDy=0;entryPerimeter=0;" edge="1" parent="1">
          <mxGeometry width="50" height="50" relative="1" as="geometry">
            <mxPoint x="722.53" y="302" as="sourcePoint" />
            <mxPoint x="722.53" y="242" as="targetPoint" />
          </mxGeometry>
        </mxCell>
        <mxCell id="oiqnkyGdKJSnwHeWL_rj-106" value="" style="endArrow=none;dashed=1;html=1;dashPattern=1 3;strokeWidth=2;rounded=0;entryX=1.153;entryY=0.954;entryDx=0;entryDy=0;entryPerimeter=0;" edge="1" parent="1">
          <mxGeometry width="50" height="50" relative="1" as="geometry">
            <mxPoint x="600" y="302" as="sourcePoint" />
            <mxPoint x="600" y="242" as="targetPoint" />
          </mxGeometry>
        </mxCell>
        <mxCell id="oiqnkyGdKJSnwHeWL_rj-107" value="微电解反应器" style="text;html=1;align=center;verticalAlign=middle;resizable=0;points=[];autosize=1;strokeColor=none;fillColor=none;" vertex="1" parent="1">
          <mxGeometry x="340" y="-2" width="100" height="30" as="geometry" />
        </mxCell>
        <mxCell id="oiqnkyGdKJSnwHeWL_rj-108" value="芬顿反应器" style="text;html=1;align=center;verticalAlign=middle;resizable=0;points=[];autosize=1;strokeColor=none;fillColor=none;" vertex="1" parent="1">
          <mxGeometry x="620" y="40" width="80" height="30" as="geometry" />
        </mxCell>
        <mxCell id="oiqnkyGdKJSnwHeWL_rj-109" value="气体流量计" style="text;html=1;align=center;verticalAlign=middle;resizable=0;points=[];autosize=1;strokeColor=none;fillColor=none;" vertex="1" parent="1">
          <mxGeometry x="465" y="227.5" width="80" height="30" as="geometry" />
        </mxCell>
        <mxCell id="oiqnkyGdKJSnwHeWL_rj-110" value="" style="endArrow=classic;html=1;rounded=0;exitX=0.126;exitY=1.067;exitDx=0;exitDy=0;exitPerimeter=0;entryX=0.011;entryY=0.989;entryDx=0;entryDy=0;entryPerimeter=0;" edge="1" parent="1" source="oiqnkyGdKJSnwHeWL_rj-40" target="oiqnkyGdKJSnwHeWL_rj-109">
          <mxGeometry width="50" height="50" relative="1" as="geometry">
            <mxPoint x="500" y="210" as="sourcePoint" />
            <mxPoint x="490" y="280" as="targetPoint" />
          </mxGeometry>
        </mxCell>
        <mxCell id="oiqnkyGdKJSnwHeWL_rj-111" value="450mm" style="text;html=1;align=center;verticalAlign=middle;resizable=0;points=[];autosize=1;strokeColor=none;fillColor=none;" vertex="1" parent="1">
          <mxGeometry x="530" y="142" width="60" height="30" as="geometry" />
        </mxCell>
        <mxCell id="oiqnkyGdKJSnwHeWL_rj-112" value="" style="endArrow=classic;html=1;rounded=0;exitX=0.307;exitY=0.511;exitDx=0;exitDy=0;exitPerimeter=0;" edge="1" parent="1">
          <mxGeometry width="50" height="50" relative="1" as="geometry">
            <mxPoint x="560" y="113.13" as="sourcePoint" />
            <mxPoint x="560" y="82" as="targetPoint" />
          </mxGeometry>
        </mxCell>
        <mxCell id="oiqnkyGdKJSnwHeWL_rj-113" value="" style="endArrow=classic;html=1;rounded=0;exitX=0.653;exitY=0.513;exitDx=0;exitDy=0;exitPerimeter=0;entryX=1;entryY=0.5;entryDx=0;entryDy=0;entryPerimeter=0;" edge="1" parent="1" target="oiqnkyGdKJSnwHeWL_rj-96">
          <mxGeometry width="50" height="50" relative="1" as="geometry">
            <mxPoint x="560" y="179.13" as="sourcePoint" />
            <mxPoint x="560" y="245.13" as="targetPoint" />
          </mxGeometry>
        </mxCell>
        <mxCell id="oiqnkyGdKJSnwHeWL_rj-115" value="" style="endArrow=none;dashed=1;html=1;dashPattern=1 3;strokeWidth=2;rounded=0;entryX=1;entryY=0;entryDx=0;entryDy=0;entryPerimeter=0;" edge="1" parent="1" target="oiqnkyGdKJSnwHeWL_rj-89">
          <mxGeometry width="50" height="50" relative="1" as="geometry">
            <mxPoint x="324.74" y="239.57" as="sourcePoint" />
            <mxPoint x="300" y="240" as="targetPoint" />
          </mxGeometry>
        </mxCell>
        <mxCell id="oiqnkyGdKJSnwHeWL_rj-118" value="" style="endArrow=none;dashed=1;html=1;dashPattern=1 3;strokeWidth=2;rounded=0;entryX=1;entryY=0;entryDx=0;entryDy=0;entryPerimeter=0;" edge="1" parent="1">
          <mxGeometry width="50" height="50" relative="1" as="geometry">
            <mxPoint x="600" y="231.57" as="sourcePoint" />
            <mxPoint x="565.26" y="232" as="targetPoint" />
          </mxGeometry>
        </mxCell>
        <mxCell id="oiqnkyGdKJSnwHeWL_rj-120" value="" style="endArrow=none;dashed=1;html=1;dashPattern=1 3;strokeWidth=2;rounded=0;entryX=0;entryY=0;entryDx=0;entryDy=0;entryPerimeter=0;" edge="1" parent="1" target="oiqnkyGdKJSnwHeWL_rj-89">
          <mxGeometry width="50" height="50" relative="1" as="geometry">
            <mxPoint x="324.74" y="39.56999999999999" as="sourcePoint" />
            <mxPoint x="290" y="40" as="targetPoint" />
          </mxGeometry>
        </mxCell>
        <mxCell id="oiqnkyGdKJSnwHeWL_rj-121" value="" style="endArrow=none;dashed=1;html=1;dashPattern=1 3;strokeWidth=2;rounded=0;entryX=1;entryY=0;entryDx=0;entryDy=0;entryPerimeter=0;" edge="1" parent="1">
          <mxGeometry width="50" height="50" relative="1" as="geometry">
            <mxPoint x="604.74" y="82.82" as="sourcePoint" />
            <mxPoint x="570" y="83.25" as="targetPoint" />
          </mxGeometry>
        </mxCell>
        <mxCell id="oiqnkyGdKJSnwHeWL_rj-122" value="原水箱" style="text;html=1;align=center;verticalAlign=middle;resizable=0;points=[];autosize=1;strokeColor=none;fillColor=none;" vertex="1" parent="1">
          <mxGeometry x="100" y="136" width="60" height="30" as="geometry" />
        </mxCell>
        <mxCell id="oiqnkyGdKJSnwHeWL_rj-123" value="进水泵" style="text;html=1;align=center;verticalAlign=middle;resizable=0;points=[];autosize=1;strokeColor=none;fillColor=none;" vertex="1" parent="1">
          <mxGeometry x="195" y="238" width="60" height="30" as="geometry" />
        </mxCell>
        <mxCell id="oiqnkyGdKJSnwHeWL_rj-124" value="" style="endArrow=none;html=1;rounded=0;entryX=0;entryY=0.5;entryDx=0;entryDy=0;exitX=0.667;exitY=1.084;exitDx=0;exitDy=0;exitPerimeter=0;" edge="1" parent="1" source="oiqnkyGdKJSnwHeWL_rj-3" target="oiqnkyGdKJSnwHeWL_rj-14">
          <mxGeometry width="50" height="50" relative="1" as="geometry">
            <mxPoint x="250" y="229" as="sourcePoint" />
            <mxPoint x="266" y="231" as="targetPoint" />
          </mxGeometry>
        </mxCell>
        <mxCell id="oiqnkyGdKJSnwHeWL_rj-125" value="加药罐" style="shape=datastore;whiteSpace=wrap;html=1;" vertex="1" parent="1">
          <mxGeometry x="325.63" y="310" width="55" height="50" as="geometry" />
        </mxCell>
        <mxCell id="oiqnkyGdKJSnwHeWL_rj-126" value="加药罐" style="shape=datastore;whiteSpace=wrap;html=1;" vertex="1" parent="1">
          <mxGeometry x="400.63" y="310" width="55" height="50" as="geometry" />
        </mxCell>
        <mxCell id="oiqnkyGdKJSnwHeWL_rj-127" value="加药罐" style="shape=datastore;whiteSpace=wrap;html=1;" vertex="1" parent="1">
          <mxGeometry x="605" y="310" width="55" height="50" as="geometry" />
        </mxCell>
        <mxCell id="oiqnkyGdKJSnwHeWL_rj-128" value="加药罐" style="shape=datastore;whiteSpace=wrap;html=1;" vertex="1" parent="1">
          <mxGeometry x="675" y="310" width="55" height="50" as="geometry" />
        </mxCell>
        <mxCell id="oiqnkyGdKJSnwHeWL_rj-130" value="" style="group" vertex="1" connectable="0" parent="1">
          <mxGeometry x="420.63" y="280" width="15" height="20" as="geometry" />
        </mxCell>
        <mxCell id="oiqnkyGdKJSnwHeWL_rj-131" value="" style="triangle;whiteSpace=wrap;html=1;rotation=-90;" vertex="1" parent="oiqnkyGdKJSnwHeWL_rj-130">
          <mxGeometry x="2.5" y="5.7142857142857135" width="10" height="17.14285714285714" as="geometry" />
        </mxCell>
        <mxCell id="oiqnkyGdKJSnwHeWL_rj-132" value="" style="ellipse;whiteSpace=wrap;html=1;aspect=fixed;" vertex="1" parent="oiqnkyGdKJSnwHeWL_rj-130">
          <mxGeometry x="2.5" width="10" height="10" as="geometry" />
        </mxCell>
        <mxCell id="oiqnkyGdKJSnwHeWL_rj-133" value="" style="group" vertex="1" connectable="0" parent="1">
          <mxGeometry x="350.13" y="280" width="15" height="20" as="geometry" />
        </mxCell>
        <mxCell id="oiqnkyGdKJSnwHeWL_rj-134" value="" style="triangle;whiteSpace=wrap;html=1;rotation=-90;" vertex="1" parent="oiqnkyGdKJSnwHeWL_rj-133">
          <mxGeometry x="2.5" y="5.7142857142857135" width="10" height="17.14285714285714" as="geometry" />
        </mxCell>
        <mxCell id="oiqnkyGdKJSnwHeWL_rj-135" value="" style="ellipse;whiteSpace=wrap;html=1;aspect=fixed;" vertex="1" parent="oiqnkyGdKJSnwHeWL_rj-133">
          <mxGeometry x="2.5" width="10" height="10" as="geometry" />
        </mxCell>
        <mxCell id="oiqnkyGdKJSnwHeWL_rj-136" value="" style="group" vertex="1" connectable="0" parent="1">
          <mxGeometry x="695.5" y="280" width="15" height="20" as="geometry" />
        </mxCell>
        <mxCell id="oiqnkyGdKJSnwHeWL_rj-137" value="" style="triangle;whiteSpace=wrap;html=1;rotation=-90;" vertex="1" parent="oiqnkyGdKJSnwHeWL_rj-136">
          <mxGeometry x="2.5" y="5.7142857142857135" width="10" height="17.14285714285714" as="geometry" />
        </mxCell>
        <mxCell id="oiqnkyGdKJSnwHeWL_rj-138" value="" style="ellipse;whiteSpace=wrap;html=1;aspect=fixed;" vertex="1" parent="oiqnkyGdKJSnwHeWL_rj-136">
          <mxGeometry x="2.5" width="10" height="10" as="geometry" />
        </mxCell>
        <mxCell id="oiqnkyGdKJSnwHeWL_rj-139" value="" style="group" vertex="1" connectable="0" parent="1">
          <mxGeometry x="625" y="280" width="15" height="20" as="geometry" />
        </mxCell>
        <mxCell id="oiqnkyGdKJSnwHeWL_rj-140" value="" style="triangle;whiteSpace=wrap;html=1;rotation=-90;" vertex="1" parent="oiqnkyGdKJSnwHeWL_rj-139">
          <mxGeometry x="2.5" y="5.7142857142857135" width="10" height="17.14285714285714" as="geometry" />
        </mxCell>
        <mxCell id="oiqnkyGdKJSnwHeWL_rj-141" value="" style="ellipse;whiteSpace=wrap;html=1;aspect=fixed;" vertex="1" parent="oiqnkyGdKJSnwHeWL_rj-139">
          <mxGeometry x="2.5" width="10" height="10" as="geometry" />
        </mxCell>
        <mxCell id="oiqnkyGdKJSnwHeWL_rj-142" value="絮凝斜板沉淀池" style="text;html=1;align=center;verticalAlign=middle;resizable=0;points=[];autosize=1;strokeColor=none;fillColor=none;" vertex="1" parent="1">
          <mxGeometry x="800" y="45" width="110" height="30" as="geometry" />
        </mxCell>
        <mxCell id="oiqnkyGdKJSnwHeWL_rj-143" value="" style="shape=mxgraph.pid.pumps.vertical_pump;html=1;pointerEvents=1;align=center;verticalLabelPosition=bottom;verticalAlign=top;dashed=0;" vertex="1" parent="1">
          <mxGeometry x="750" y="61" width="20" height="26" as="geometry" />
        </mxCell>
        <mxCell id="oiqnkyGdKJSnwHeWL_rj-144" value="" style="rounded=1;whiteSpace=wrap;html=1;" vertex="1" parent="1">
          <mxGeometry x="770" y="82" width="40" height="10" as="geometry" />
        </mxCell>
        <mxCell id="oiqnkyGdKJSnwHeWL_rj-149" value="" style="endArrow=none;dashed=1;html=1;rounded=0;entryX=2;entryY=0.987;entryDx=0;entryDy=0;entryPerimeter=0;" edge="1" parent="1" target="oiqnkyGdKJSnwHeWL_rj-71">
          <mxGeometry width="50" height="50" relative="1" as="geometry">
            <mxPoint x="910" y="240" as="sourcePoint" />
            <mxPoint x="770" y="240" as="targetPoint" />
          </mxGeometry>
        </mxCell>
        <mxCell id="oiqnkyGdKJSnwHeWL_rj-153" value="" style="group" vertex="1" connectable="0" parent="1">
          <mxGeometry x="770" y="147.5" width="140" height="80" as="geometry" />
        </mxCell>
        <mxCell id="oiqnkyGdKJSnwHeWL_rj-151" value="" style="shape=cube;whiteSpace=wrap;html=1;boundedLbl=1;backgroundOutline=1;darkOpacity=0.05;darkOpacity2=0.1;size=40;" vertex="1" parent="oiqnkyGdKJSnwHeWL_rj-153">
          <mxGeometry x="45" width="90" height="80" as="geometry" />
        </mxCell>
        <mxCell id="oiqnkyGdKJSnwHeWL_rj-152" value="" style="shape=cube;whiteSpace=wrap;html=1;boundedLbl=1;backgroundOutline=1;darkOpacity=0.05;darkOpacity2=0.1;size=40;" vertex="1" parent="oiqnkyGdKJSnwHeWL_rj-153">
          <mxGeometry width="90" height="80" as="geometry" />
        </mxCell>
        <mxCell id="oiqnkyGdKJSnwHeWL_rj-160" value="" style="endArrow=none;dashed=1;html=1;rounded=0;exitX=0;exitY=0;exitDx=50;exitDy=0;exitPerimeter=0;" edge="1" parent="oiqnkyGdKJSnwHeWL_rj-153" source="oiqnkyGdKJSnwHeWL_rj-151">
          <mxGeometry width="50" height="50" relative="1" as="geometry">
            <mxPoint x="80" as="sourcePoint" />
            <mxPoint x="120" y="34" as="targetPoint" />
          </mxGeometry>
        </mxCell>
        <mxCell id="oiqnkyGdKJSnwHeWL_rj-163" value="" style="pointerEvents=1;verticalLabelPosition=bottom;shadow=0;dashed=0;align=center;html=1;verticalAlign=top;shape=mxgraph.electrical.resistors.resistor_2;rotation=50;" vertex="1" parent="oiqnkyGdKJSnwHeWL_rj-153">
          <mxGeometry x="80" y="22.5" width="60" height="3" as="geometry" />
        </mxCell>
        <mxCell id="oiqnkyGdKJSnwHeWL_rj-165" value="" style="endArrow=classic;html=1;rounded=0;exitX=0.307;exitY=0.511;exitDx=0;exitDy=0;exitPerimeter=0;" edge="1" parent="oiqnkyGdKJSnwHeWL_rj-153">
          <mxGeometry width="50" height="50" relative="1" as="geometry">
            <mxPoint x="-0.5699999999999363" y="31.129999999999995" as="sourcePoint" />
            <mxPoint x="-0.5699999999999363" as="targetPoint" />
          </mxGeometry>
        </mxCell>
        <mxCell id="oiqnkyGdKJSnwHeWL_rj-166" value="" style="endArrow=classic;html=1;rounded=0;exitX=0.653;exitY=0.513;exitDx=0;exitDy=0;exitPerimeter=0;" edge="1" parent="oiqnkyGdKJSnwHeWL_rj-153">
          <mxGeometry width="50" height="50" relative="1" as="geometry">
            <mxPoint x="-0.5699999999999363" y="45.69" as="sourcePoint" />
            <mxPoint x="-1" y="92.5" as="targetPoint" />
          </mxGeometry>
        </mxCell>
        <mxCell id="oiqnkyGdKJSnwHeWL_rj-146" value="" style="rounded=1;whiteSpace=wrap;html=1;" vertex="1" parent="1">
          <mxGeometry x="800" y="82" width="10" height="88" as="geometry" />
        </mxCell>
        <mxCell id="oiqnkyGdKJSnwHeWL_rj-154" value="" style="endArrow=none;html=1;rounded=0;entryX=0;entryY=0;entryDx=90;entryDy=40;entryPerimeter=0;" edge="1" parent="1" target="oiqnkyGdKJSnwHeWL_rj-151">
          <mxGeometry width="50" height="50" relative="1" as="geometry">
            <mxPoint x="940" y="240" as="sourcePoint" />
            <mxPoint x="960" y="160" as="targetPoint" />
          </mxGeometry>
        </mxCell>
        <mxCell id="oiqnkyGdKJSnwHeWL_rj-159" value="" style="endArrow=none;dashed=1;html=1;rounded=0;" edge="1" parent="1">
          <mxGeometry width="50" height="50" relative="1" as="geometry">
            <mxPoint x="890" y="200" as="sourcePoint" />
            <mxPoint x="940" y="240" as="targetPoint" />
          </mxGeometry>
        </mxCell>
        <mxCell id="oiqnkyGdKJSnwHeWL_rj-161" value="" style="shape=mxgraph.pid.pumps.vertical_pump;html=1;pointerEvents=1;align=center;verticalLabelPosition=bottom;verticalAlign=top;dashed=0;" vertex="1" parent="1">
          <mxGeometry x="930" y="201.5" width="20" height="26" as="geometry" />
        </mxCell>
        <mxCell id="oiqnkyGdKJSnwHeWL_rj-167" value="330mm" style="text;html=1;align=center;verticalAlign=middle;resizable=0;points=[];autosize=1;strokeColor=none;fillColor=none;" vertex="1" parent="1">
          <mxGeometry x="720" y="152" width="60" height="30" as="geometry" />
        </mxCell>
        <mxCell id="oiqnkyGdKJSnwHeWL_rj-168" value="" style="endArrow=none;html=1;rounded=0;" edge="1" parent="1">
          <mxGeometry width="50" height="50" relative="1" as="geometry">
            <mxPoint x="910" y="240" as="sourcePoint" />
            <mxPoint x="940" y="240" as="targetPoint" />
          </mxGeometry>
        </mxCell>
        <mxCell id="oiqnkyGdKJSnwHeWL_rj-169" value="" style="endArrow=none;html=1;rounded=0;exitX=1;exitY=1;exitDx=0;exitDy=0;exitPerimeter=0;" edge="1" parent="1" source="oiqnkyGdKJSnwHeWL_rj-151">
          <mxGeometry width="50" height="50" relative="1" as="geometry">
            <mxPoint x="910" y="230" as="sourcePoint" />
            <mxPoint x="910" y="240" as="targetPoint" />
          </mxGeometry>
        </mxCell>
      </root>
    </mxGraphModel>
  </diagram>
</mxfile>
